<svg width="44" height="44" viewBox="0 0 44 44" fill="none" xmlns="http://www.w3.org/2000/svg">
<g filter="url(#filter0_d_21_4549)">
<path fill-rule="evenodd" clip-rule="evenodd" d="M18 8C14.6863 8 12 10.6863 12 14V22C12 25.3137 14.6863 28 18 28H26C29.3137 28 32 25.3137 32 22V14C32 10.6863 29.3137 8 26 8H18ZM18.2252 22.4676C18.894 23.1759 19.9743 23.1759 20.6432 22.4767L26.6452 16.1839C27.1168 15.6935 27.1168 14.8944 26.6538 14.4041L26.6195 14.3678C26.1565 13.8774 25.4105 13.8774 24.9475 14.3678L19.4342 20.2066L18.0194 18.7083C17.5735 18.2361 16.8361 18.2179 16.3731 18.6901C15.8844 19.1714 15.8758 19.9796 16.3474 20.479L18.2252 22.4676Z" fill="white"/>
</g>
<defs>
<filter id="filter0_d_21_4549" x="0" y="0" width="44" height="44" filterUnits="userSpaceOnUse" color-interpolation-filters="sRGB">
<feFlood flood-opacity="0" result="BackgroundImageFix"/>
<feColorMatrix in="SourceAlpha" type="matrix" values="0 0 0 0 0 0 0 0 0 0 0 0 0 0 0 0 0 0 127 0" result="hardAlpha"/>
<feOffset dy="4"/>
<feGaussianBlur stdDeviation="6"/>
<feComposite in2="hardAlpha" operator="out"/>
<feColorMatrix type="matrix" values="0 0 0 0 0.289732 0 0 0 0 0.219236 0 0 0 0 0.683333 0 0 0 0.15 0"/>
<feBlend mode="normal" in2="BackgroundImageFix" result="effect1_dropShadow_21_4549"/>
<feBlend mode="normal" in="SourceGraphic" in2="effect1_dropShadow_21_4549" result="shape"/>
</filter>
</defs>
</svg>
