<svg width="20" height="20" viewBox="0 0 20 20" fill="none" xmlns="http://www.w3.org/2000/svg">
<path d="M17.0711 2.92849C13.1678 -0.97474 6.83216 -0.97474 2.92893 2.92849C-0.974297 6.83172 -0.974297 13.1674 2.92893 17.0706C6.83216 20.9739 13.1678 20.9739 17.0711 17.0706C20.9743 13.1674 20.9743 6.83172 17.0711 2.92849ZM12.1213 13.5351L10 11.4138L7.87868 13.5351C7.48977 13.924 6.85338 13.924 6.46447 13.5351C6.07556 13.1462 6.07556 12.5098 6.46447 12.1209L8.58579 9.99956L6.46447 7.87824C6.07556 7.48933 6.07556 6.85293 6.46447 6.46402C6.85338 6.07511 7.48977 6.07511 7.87868 6.46402L10 8.58534L12.1213 6.46402C12.5102 6.07511 13.1466 6.07511 13.5355 6.46402C13.9244 6.85293 13.9244 7.48933 13.5355 7.87824L11.4142 9.99956L13.5355 12.1209C13.9244 12.5098 13.9244 13.1462 13.5355 13.5351C13.1466 13.924 12.5102 13.924 12.1213 13.5351Z" fill="#BFC9E0"/>
</svg>
