<svg width="22" height="24" viewBox="0 0 22 24" fill="none" xmlns="http://www.w3.org/2000/svg">
<path d="M19.9313 8.81859H18.1958L13.424 5.49145C13.7733 4.18823 13.0531 2.86997 11.8371 2.43398V0.837188C11.8371 0.374859 11.4623 0 10.9999 0C10.5376 0 10.1627 0.374859 10.1627 0.837188V2.43398C8.94582 2.87034 8.22676 4.18941 8.57588 5.49155L3.8041 8.81859H2.06851C0.991976 8.81859 0.116211 9.69436 0.116211 10.7709V22.0476C0.116211 23.1242 0.991976 24 2.06851 24H19.9313C21.0078 24 21.8836 23.1242 21.8836 22.0477V10.7709C21.8836 9.69436 21.0079 8.81859 19.9313 8.81859ZM6.5348 18.7535C6.5348 19.2158 6.15995 19.5907 5.69762 19.5907C5.23524 19.5907 4.86043 19.2158 4.86043 18.7535V14.0651C4.86043 13.6027 5.23529 13.2279 5.69762 13.2279C6.15999 13.2279 6.5348 13.6028 6.5348 14.0651V18.7535ZM11.8371 18.7535C11.8371 19.2158 11.4623 19.5907 10.9999 19.5907C10.5376 19.5907 10.1627 19.2158 10.1627 18.7535V14.0651C10.1627 13.6027 10.5376 13.2279 10.9999 13.2279C11.4623 13.2279 11.8371 13.6028 11.8371 14.0651V18.7535ZM6.73173 8.81859L9.51751 6.87619C10.3895 7.52311 11.5887 7.53919 12.4824 6.87619L15.2681 8.81859H6.73173ZM17.1395 18.7535C17.1395 19.2158 16.7646 19.5907 16.3023 19.5907C15.8399 19.5907 15.4651 19.2158 15.4651 18.7535V14.0651C15.4651 13.6027 15.84 13.2279 16.3023 13.2279C16.7647 13.2279 17.1395 13.6028 17.1395 14.0651V18.7535Z" fill="#9198BB"/>
</svg>
