<svg width="15" height="18" viewBox="0 0 15 18" fill="none" xmlns="http://www.w3.org/2000/svg">
<path d="M10.25 0.75H2C1.175 0.75 0.5 1.425 0.5 2.25V12C0.5 12.4125 0.8375 12.75 1.25 12.75C1.6625 12.75 2 12.4125 2 12V3C2 2.5875 2.3375 2.25 2.75 2.25H10.25C10.6625 2.25 11 1.9125 11 1.5C11 1.0875 10.6625 0.75 10.25 0.75ZM13.25 3.75H5C4.175 3.75 3.5 4.425 3.5 5.25V15.75C3.5 16.575 4.175 17.25 5 17.25H13.25C14.075 17.25 14.75 16.575 14.75 15.75V5.25C14.75 4.425 14.075 3.75 13.25 3.75ZM12.5 15.75H5.75C5.3375 15.75 5 15.4125 5 15V6C5 5.5875 5.3375 5.25 5.75 5.25H12.5C12.9125 5.25 13.25 5.5875 13.25 6V15C13.25 15.4125 12.9125 15.75 12.5 15.75Z" fill="#BFC9E0"/>
</svg>
