<svg width="14" height="14" viewBox="0 0 14 14" fill="none" xmlns="http://www.w3.org/2000/svg">
<path d="M13.3 0.710215C12.91 0.320215 12.28 0.320215 11.89 0.710215L6.99997 5.59022L2.10997 0.700215C1.71997 0.310215 1.08997 0.310215 0.699971 0.700215C0.309971 1.09021 0.309971 1.72022 0.699971 2.11022L5.58997 7.00022L0.699971 11.8902C0.309971 12.2802 0.309971 12.9102 0.699971 13.3002C1.08997 13.6902 1.71997 13.6902 2.10997 13.3002L6.99997 8.41021L11.89 13.3002C12.28 13.6902 12.91 13.6902 13.3 13.3002C13.69 12.9102 13.69 12.2802 13.3 11.8902L8.40997 7.00022L13.3 2.11022C13.68 1.73022 13.68 1.09022 13.3 0.710215Z" fill="#9198BB"/>
</svg>
