<svg width="20" height="20" viewBox="0 0 20 20" fill="none" xmlns="http://www.w3.org/2000/svg">
<path d="M15.8333 2.50016H15V1.66683C15 1.2085 14.625 0.833496 14.1667 0.833496C13.7083 0.833496 13.3333 1.2085 13.3333 1.66683V2.50016H6.66667V1.66683C6.66667 1.2085 6.29167 0.833496 5.83333 0.833496C5.375 0.833496 5 1.2085 5 1.66683V2.50016H4.16667C3.24167 2.50016 2.50833 3.25016 2.50833 4.16683L2.5 15.8335C2.5 16.7502 3.24167 17.5002 4.16667 17.5002H15.8333C16.75 17.5002 17.5 16.7502 17.5 15.8335V4.16683C17.5 3.25016 16.75 2.50016 15.8333 2.50016ZM15 15.8335H5C4.54167 15.8335 4.16667 15.4585 4.16667 15.0002V6.66683H15.8333V15.0002C15.8333 15.4585 15.4583 15.8335 15 15.8335ZM6.66667 8.3335H9.16667C9.625 8.3335 10 8.7085 10 9.16683V11.6668C10 12.1252 9.625 12.5002 9.16667 12.5002H6.66667C6.20833 12.5002 5.83333 12.1252 5.83333 11.6668V9.16683C5.83333 8.7085 6.20833 8.3335 6.66667 8.3335Z" fill="#9198BB"/>
</svg>
