<svg width="24" height="24" viewBox="0 0 24 24" fill="none" xmlns="http://www.w3.org/2000/svg">
<g clip-path="url(#clip0_58_708)">
<path d="M16.1194 1.9285L5.22841 7.5045L0.899414 5.3745L11.5984 0.0915C11.8384 -0.0305 12.1264 -0.0305 12.3784 0.0915L16.1194 1.9285Z" fill="#9198BB"/>
<path d="M23.0879 5.37543L12.0059 10.8654L7.85586 8.82043L7.25586 8.51543L18.1589 2.94043L18.7589 3.24443L23.0879 5.37543Z" fill="#9198BB"/>
<path d="M11.118 12.447L11.106 24L0.492 18.461C0.192 18.303 0 17.986 0 17.645V6.95703L4.498 9.17303V13.069C4.498 13.568 4.906 13.982 5.398 13.982C5.89 13.982 6.298 13.568 6.298 13.069V10.074L6.898 10.366L11.118 12.447Z" fill="#9198BB"/>
<path d="M23.9883 6.96875L12.9183 12.4348L12.9062 23.9878L24.0002 18.1947L23.9883 6.96875Z" fill="#9198BB"/>
</g>
<defs>
<clipPath id="clip0_58_708">
<rect width="24" height="24" fill="white"/>
</clipPath>
</defs>
</svg>
