<svg width="22" height="20" viewBox="0 0 22 20" fill="none" xmlns="http://www.w3.org/2000/svg">
<path d="M10.1305 3.87974C10.5138 3.20495 11.4862 3.20495 11.8695 3.87974L18.8417 16.1542C19.2203 16.8208 18.7388 17.6481 17.9722 17.6481H4.02784C3.26116 17.6481 2.77965 16.8208 3.15832 16.1542L10.1305 3.87974ZM0.313185 16.4721C-0.575459 18.0362 0.532461 20 2.30975 20H19.6903C21.4675 20 22.5755 18.0362 21.6868 16.4721L12.9966 1.17301C12.1079 -0.391004 9.89208 -0.391004 9.00344 1.17301L0.313185 16.4721ZM9.84592 8.24048V10.5924C9.84592 11.2392 10.3653 11.7683 11 11.7683C11.6347 11.7683 12.1541 11.2392 12.1541 10.5924V8.24048C12.1541 7.59371 11.6347 7.06453 11 7.06453C10.3653 7.06453 9.84592 7.59371 9.84592 8.24048ZM9.84592 15.1202C9.84592 14.568 10.2936 14.1202 10.8459 14.1202H11.1541C11.7064 14.1202 12.1541 14.568 12.1541 15.1202V15.4721C12.1541 16.0244 11.7064 16.4721 11.1541 16.4721H10.8459C10.2936 16.4721 9.84592 16.0244 9.84592 15.4721V15.1202Z" fill="#FF4A60"/>
</svg>
