<svg width="24" height="24" viewBox="0 0 24 24" fill="none" xmlns="http://www.w3.org/2000/svg">
<path d="M23.1853 11.6954C23.1524 11.6213 22.3585 9.86011 20.5928 8.09433C18.2412 5.74243 15.2698 4.49924 12 4.49924C8.73017 4.49924 5.75874 5.74243 3.40711 8.09433C1.64142 9.86011 0.847573 11.6213 0.814613 11.6954C0.772012 11.7913 0.75 11.895 0.75 12C0.75 12.1049 0.772012 12.2087 0.814613 12.3046C0.847573 12.3787 1.64152 14.1395 3.4072 15.905C5.75883 18.2563 8.73017 19.4992 12 19.4992C15.2698 19.4992 18.2411 18.2563 20.5928 15.905C22.3584 14.1395 23.1524 12.3787 23.1853 12.3046C23.2279 12.2087 23.25 12.1049 23.25 12C23.25 11.895 23.2279 11.7913 23.1853 11.6954V11.6954ZM12 8.62506C12.6675 8.62506 13.32 8.823 13.875 9.19385C14.43 9.5647 14.8626 10.0918 15.1181 10.7085C15.3735 11.3252 15.4404 12.0038 15.3101 12.6585C15.1799 13.3132 14.8585 13.9145 14.3865 14.3865C13.9145 14.8585 13.3131 15.18 12.6584 15.3102C12.0037 15.4404 11.3251 15.3736 10.7084 15.1182C10.0917 14.8627 9.56462 14.4301 9.19377 13.8751C8.82292 13.3201 8.62498 12.6676 8.62498 12.0001C8.62598 11.1053 8.98189 10.2474 9.6146 9.61469C10.2473 8.98197 11.1052 8.62607 12 8.62506V8.62506Z" fill="#CFD6E4"/>
</svg>
