<svg width="64" height="64" viewBox="0 0 64 64" fill="none" xmlns="http://www.w3.org/2000/svg">
<path d="M37.7867 8H13.3333C10.4 8 8 10.4 8 13.3333V50.6667C8 53.6 10.4 56 13.3333 56H50.6667C53.6 56 56 53.6 56 50.6667V26.2133C56 24.8 55.44 23.44 54.4267 22.4533L41.5467 9.57333C40.56 8.56 39.2 8 37.7867 8Z" fill="#BFC9E0"/>
<path d="M35.59 31H34V26C34 25.45 33.55 25 33 25H29C28.45 25 28 25.45 28 26V31H26.41C25.52 31 25.07 32.08 25.7 32.71L30.29 37.3C30.68 37.69 31.31 37.69 31.7 37.3L36.29 32.71C36.92 32.08 36.48 31 35.59 31ZM24 41C24 41.55 24.45 42 25 42H37C37.55 42 38 41.55 38 41C38 40.45 37.55 40 37 40H25C24.45 40 24 40.45 24 41Z" fill="white"/>
</svg>
