<svg width="24" height="24" viewBox="0 0 24 24" fill="none" xmlns="http://www.w3.org/2000/svg">
<path d="M12 2.25C10.0716 2.25 8.18657 2.82183 6.58319 3.89317C4.97982 4.96451 3.73013 6.48726 2.99218 8.26884C2.25422 10.0504 2.06114 12.0108 2.43735 13.9021C2.81355 15.7934 3.74215 17.5307 5.10571 18.8943C6.46928 20.2579 8.20656 21.1865 10.0979 21.5627C11.9892 21.9389 13.9496 21.7458 15.7312 21.0078C17.5127 20.2699 19.0355 19.0202 20.1068 17.4168C21.1782 15.8134 21.75 13.9284 21.75 12C21.747 9.41506 20.7188 6.93684 18.891 5.10901C17.0632 3.28118 14.5849 2.25299 12 2.25ZM11.9999 6.75C12.2224 6.75 12.4399 6.81598 12.6249 6.9396C12.8099 7.06321 12.9541 7.23891 13.0393 7.44448C13.1244 7.65005 13.1467 7.87625 13.1033 8.09448C13.0599 8.31271 12.9527 8.51316 12.7954 8.6705C12.6381 8.82783 12.4376 8.93498 12.2194 8.97838C12.0012 9.02179 11.775 8.99951 11.5694 8.91436C11.3638 8.82922 11.1881 8.68502 11.0645 8.50002C10.9409 8.31501 10.8749 8.0975 10.8749 7.875C10.8749 7.72726 10.904 7.58097 10.9605 7.44448C11.0171 7.30799 11.1 7.18397 11.2044 7.0795C11.3089 6.97504 11.4329 6.89217 11.5694 6.83563C11.7059 6.7791 11.8522 6.75 11.9999 6.75H11.9999ZM12.75 17.25H12C11.9015 17.2501 11.8039 17.2307 11.7129 17.193C11.6219 17.1554 11.5392 17.1001 11.4695 17.0305C11.3999 16.9608 11.3447 16.8781 11.307 16.7871C11.2693 16.6961 11.2499 16.5985 11.25 16.5V12C11.0511 12 10.8603 11.921 10.7197 11.7803C10.579 11.6397 10.5 11.4489 10.5 11.25C10.5 11.0511 10.579 10.8603 10.7197 10.7197C10.8603 10.579 11.0511 10.5 11.25 10.5H12C12.0985 10.4999 12.1961 10.5193 12.2871 10.557C12.3781 10.5946 12.4608 10.6499 12.5305 10.7195C12.6001 10.7892 12.6554 10.8719 12.693 10.9629C12.7307 11.0539 12.7501 11.1515 12.75 11.25V15.75C12.9489 15.75 13.1397 15.829 13.2803 15.9697C13.421 16.1103 13.5 16.3011 13.5 16.5C13.5 16.6989 13.421 16.8897 13.2803 17.0303C13.1397 17.171 12.9489 17.25 12.75 17.25Z" fill="#CFD6E4"/>
</svg>
