<svg width="106" height="28" viewBox="0 0 106 28" fill="none" xmlns="http://www.w3.org/2000/svg">
<path d="M34.2622 9.79873H29.6183V14.5789C29.6183 14.6924 29.5842 14.7833 29.5048 14.8514C29.4253 14.9195 29.3344 14.9536 29.2436 14.9536H28.3466C28.2331 14.9536 28.1422 14.9195 28.0628 14.84C27.9833 14.7605 27.9492 14.6697 27.9492 14.5789V4.16702C27.9492 3.47441 28.4375 2.72503 29.4253 1.94158C30.4017 1.14679 31.242 0.760742 31.9459 0.760742C32.6385 0.760742 33.4787 1.15814 34.4666 1.94158C35.443 2.72503 35.9426 3.47441 35.9426 4.16702V14.5789C35.9426 14.6811 35.9086 14.7719 35.8291 14.84C35.7496 14.9195 35.6588 14.9536 35.5452 14.9536H34.6709C34.5688 14.9536 34.4779 14.9195 34.4098 14.84C34.3303 14.7605 34.2962 14.6697 34.2962 14.5789V9.79873H34.2622ZM29.6069 4.38275V8.33403H34.2508V4.38275C34.2508 3.974 33.967 3.51983 33.3993 3.04295C32.8315 2.55471 32.3433 2.31628 31.9232 2.31628C31.5258 2.31628 31.0376 2.55471 30.4585 3.04295C29.9022 3.51983 29.6069 3.974 29.6069 4.38275Z" fill="#4A38AE"/>
<path d="M44.2198 14.5787V7.22117C44.2198 6.88054 43.9927 6.52856 43.5499 6.16523C43.1071 5.80189 42.7324 5.62022 42.4258 5.62022C42.1306 5.62022 41.7559 5.80189 41.3017 6.16523C40.8589 6.52856 40.6318 6.88054 40.6318 7.22117V14.5787C40.6318 14.6923 40.5978 14.7831 40.5296 14.8512C40.4615 14.9194 40.3707 14.9534 40.2571 14.9534H39.4056C39.1444 14.9534 39.0195 14.8285 39.0195 14.5674V6.98273C39.0195 6.3696 39.4283 5.74512 40.2571 5.09792C41.086 4.45073 41.8013 4.13281 42.4144 4.13281C42.8118 4.13281 43.266 4.29177 43.7656 4.60969C44.2652 4.92761 44.6967 5.29095 45.0373 5.68835C45.3779 5.29095 45.8094 4.92761 46.3203 4.60969C46.8312 4.29177 47.2854 4.13281 47.6601 4.13281C48.2846 4.13281 49.0113 4.45073 49.8401 5.09792C50.669 5.74512 51.0777 6.3696 51.0777 6.98273V14.5787C51.0777 14.6923 51.0437 14.7831 50.9642 14.8512C50.8847 14.9194 50.7939 14.9534 50.703 14.9534H49.8515C49.5903 14.9534 49.4654 14.8285 49.4654 14.5674V7.22117C49.4654 6.88054 49.2384 6.52856 48.7955 6.16523C48.3527 5.80189 47.9667 5.62022 47.6488 5.62022C47.3535 5.62022 46.9789 5.80189 46.5247 6.16523C46.0819 6.52856 45.8548 6.88054 45.8548 7.22117V14.5787C45.8548 14.8399 45.7299 14.9648 45.4687 14.9648H44.6172C44.5036 14.9648 44.4128 14.9307 44.3447 14.8626C44.2538 14.7831 44.2198 14.6923 44.2198 14.5787Z" fill="#4A38AE"/>
<path d="M55.6764 0.37469V5.23431C55.9489 4.9391 56.2895 4.67795 56.6983 4.45087C57.107 4.23514 57.4817 4.12159 57.8337 4.12159C58.4355 4.12159 59.1394 4.43951 59.9683 5.08671C60.7972 5.7339 61.2059 6.38109 61.2059 7.03964V12.1831C61.2059 12.819 60.7744 13.4775 59.9002 14.136C59.0372 14.7946 58.2765 15.1239 57.618 15.1239C56.9481 15.1239 56.1873 14.7946 55.3358 14.1474C54.4842 13.4889 54.0527 12.8417 54.0527 12.2058V0.37469C54.0527 0.261148 54.0868 0.170314 54.1549 0.102188C54.223 0.0340627 54.3139 0 54.4274 0H55.279C55.3925 0 55.4834 0.0340627 55.5515 0.102188C55.6423 0.170314 55.6764 0.261148 55.6764 0.37469ZM59.5709 7.27808C59.5709 6.9261 59.3325 6.5514 58.8669 6.17671C58.4014 5.80202 57.9813 5.609 57.6293 5.609C57.2887 5.609 56.8799 5.80202 56.3917 6.17671C55.9035 6.5514 55.665 6.91474 55.665 7.25537V11.9674C55.665 12.308 55.8921 12.6713 56.3576 13.0574C56.8232 13.4434 57.2319 13.6365 57.6066 13.6365C57.9813 13.6365 58.3901 13.4434 58.8669 13.0687C59.3325 12.6941 59.5709 12.3307 59.5709 11.9674V7.27808Z" fill="#4A38AE"/>
<path d="M68.7234 4.80295L68.6212 5.43879C68.5758 5.66588 68.4168 5.75671 68.133 5.71129C67.8491 5.65452 67.6107 5.62046 67.4063 5.62046C67.1111 5.62046 66.7364 5.81348 66.2822 6.21088C65.8394 6.59693 65.6123 6.96026 65.6123 7.28954V14.5676C65.6123 14.8288 65.4874 14.9537 65.2263 14.9537H64.3747C64.2611 14.9537 64.1703 14.9196 64.1022 14.8515C64.0341 14.7833 64 14.6925 64 14.579V7.07381C64 6.44932 64.4088 5.80213 65.2149 5.14358C66.0211 4.48504 66.7364 4.15576 67.3495 4.15576C67.7356 4.15576 68.0989 4.21253 68.4395 4.32608C68.6893 4.38285 68.7802 4.55316 68.7234 4.80295Z" fill="#4A38AE"/>
<path d="M71.6391 5.12063C72.502 4.46209 73.2514 4.13281 73.91 4.13281C74.5685 4.13281 75.3179 4.46209 76.1808 5.10928C77.0437 5.76783 77.4752 6.42637 77.4752 7.09627V12.1716C77.4752 12.8075 77.0437 13.466 76.1695 14.1359C75.3065 14.8058 74.5458 15.1351 73.91 15.1351C73.2514 15.1351 72.502 14.8058 71.6391 14.1473C70.7762 13.4887 70.3447 12.8302 70.3447 12.1716V7.08492C70.3447 6.43773 70.7762 5.77918 71.6391 5.12063ZM75.8515 11.9559V7.30065C75.8515 6.92596 75.6131 6.56262 75.1476 6.17658C74.6821 5.80189 74.2619 5.60887 73.91 5.60887C73.558 5.60887 73.1379 5.80189 72.6723 6.17658C72.2068 6.55127 71.9684 6.92596 71.9684 7.30065V11.9445C71.9684 12.3192 72.1955 12.6826 72.661 13.0686C73.1265 13.4433 73.5353 13.6363 73.91 13.6363C74.2619 13.6363 74.6821 13.4433 75.1476 13.0686C75.6131 12.6939 75.8515 12.3192 75.8515 11.9559Z" fill="#4A38AE"/>
<path d="M83.4148 5.62034C83.131 5.62034 82.7563 5.79066 82.2907 6.14264C81.8252 6.49462 81.5981 6.80119 81.5981 7.08504V7.55057C81.5981 7.9139 81.9161 8.23182 82.5632 8.48162L85.0158 9.40131C86.0944 9.83277 86.6394 10.4913 86.6394 11.3883V12.4329C86.6394 12.9779 86.2307 13.557 85.4132 14.1815C84.5957 14.8059 83.869 15.1239 83.2445 15.1239C82.586 15.1239 81.6208 14.7946 80.3492 14.1474C80.0653 13.9884 79.9858 13.7727 80.1107 13.5116L80.3492 12.9552C80.4627 12.694 80.6784 12.6373 81.0077 12.7849C82.1431 13.3526 82.8925 13.6364 83.2445 13.6364C83.5397 13.6364 83.9144 13.4661 84.3686 13.1255C84.8114 12.7849 85.0385 12.4783 85.0385 12.2285V11.604C85.0385 11.3656 84.9476 11.1612 84.7773 11.0023C84.5957 10.8433 84.3459 10.6957 84.0052 10.5481L81.6549 9.6511C80.5763 9.24235 80.0312 8.61787 80.0312 7.80036V6.88067C80.0312 6.31295 80.4514 5.71118 81.3029 5.07534C82.1431 4.4395 82.8585 4.12158 83.4262 4.12158C84.062 4.12158 84.9931 4.42815 86.2193 5.04128C86.3215 5.08669 86.3896 5.15482 86.435 5.26836C86.4805 5.37055 86.4691 5.48409 86.4123 5.59764L86.1966 6.1767C86.0717 6.4492 85.856 6.50598 85.5608 6.34702C84.4253 5.85878 83.7214 5.62034 83.4148 5.62034Z" fill="#4A38AE"/>
<path d="M90.6233 4.67804V11.9334C90.6233 12.3194 90.8504 12.6941 91.3159 13.0688C91.7814 13.4435 92.1902 13.6365 92.5422 13.6365C92.8828 13.6365 93.2915 13.4435 93.7571 13.0688C94.2226 12.6941 94.461 12.3081 94.461 11.9334V4.67804C94.461 4.41689 94.5859 4.29199 94.8471 4.29199H95.6987C95.8122 4.29199 95.903 4.32606 95.9712 4.39418C96.0393 4.46231 96.0733 4.55314 96.0733 4.66668V12.1491C96.0733 12.819 95.6419 13.4776 94.7903 14.1361C93.9387 14.7947 93.178 15.1126 92.5308 15.1126C91.8609 15.1126 91.1002 14.7833 90.26 14.1361C89.4084 13.4776 88.9883 12.819 88.9883 12.1491V4.67804C88.9883 4.56449 89.0223 4.47366 89.0905 4.40553C89.1586 4.33741 89.2494 4.30335 89.363 4.30335H90.2145C90.3281 4.30335 90.4189 4.33741 90.487 4.40553C90.5892 4.47366 90.6233 4.56449 90.6233 4.67804Z" fill="#4A38AE"/>
<path d="M102.149 5.62034C101.865 5.62034 101.491 5.79066 101.025 6.14264C100.56 6.49462 100.333 6.80119 100.333 7.08504V7.55057C100.333 7.9139 100.65 8.23182 101.298 8.48162L103.75 9.40131C104.829 9.83277 105.374 10.4913 105.374 11.3883V12.4329C105.374 12.9779 104.965 13.557 104.148 14.1815C103.33 14.8059 102.603 15.1239 101.979 15.1239C101.32 15.1239 100.355 14.7946 99.0835 14.1474C98.7997 13.9884 98.7202 13.7727 98.8451 13.5116L99.0835 12.9552C99.1971 12.694 99.4128 12.6373 99.7421 12.7849C100.878 13.3526 101.627 13.6364 101.979 13.6364C102.274 13.6364 102.649 13.4661 103.103 13.1255C103.546 12.7849 103.773 12.4783 103.773 12.2285V11.604C103.773 11.3656 103.682 11.1612 103.512 11.0023C103.33 10.8433 103.08 10.6957 102.74 10.5481L100.389 9.6511C99.3106 9.24235 98.7656 8.61787 98.7656 7.80036V6.88067C98.7656 6.31295 99.1857 5.71118 100.037 5.07534C100.878 4.4395 101.593 4.12158 102.161 4.12158C102.796 4.12158 103.727 4.42815 104.954 5.04128C105.056 5.08669 105.124 5.15482 105.169 5.26836C105.215 5.37055 105.203 5.48409 105.147 5.59764L104.931 6.1767C104.806 6.4492 104.59 6.50598 104.295 6.34702C103.16 5.85878 102.444 5.62034 102.149 5.62034Z" fill="#4A38AE"/>
<path d="M74.7521 2.04399C74.7521 1.95316 74.718 1.87368 74.6499 1.81691C74.5818 1.76014 74.4909 1.72607 74.3774 1.72607H73.5485C73.435 1.72607 73.3441 1.76014 73.276 1.81691C73.2079 1.87368 73.1738 1.95316 73.1738 2.04399V5.22318H74.7521V2.04399Z" fill="#4A38AE"/>
<path d="M73.1846 17.1787C73.1846 17.2695 73.2186 17.349 73.2868 17.4058C73.3549 17.4626 73.4457 17.4966 73.5593 17.4966H74.3881C74.5017 17.4966 74.5925 17.4626 74.6606 17.4058C74.7287 17.349 74.7628 17.2695 74.7628 17.1787V13.9995H73.1846V17.1787Z" fill="#4A38AE"/>
<path d="M16.8915 8.45904C16.7553 8.45904 16.6417 8.35686 16.619 8.22061C16.267 5.80215 14.3254 3.89463 11.8956 3.57671C11.748 3.55401 11.6345 3.41775 11.6572 3.27015C11.6799 3.12254 11.8162 3.009 11.9638 3.03171C14.632 3.38369 16.7666 5.48423 17.164 8.15248C17.1867 8.30009 17.0845 8.44769 16.9256 8.4704C16.9256 8.45905 16.9142 8.45904 16.8915 8.45904Z" fill="#4A38AE"/>
<path d="M15.46 13.1938C15.3918 13.1938 15.3237 13.1711 15.2783 13.1256C15.1648 13.0234 15.1534 12.8531 15.2556 12.7396C16.039 11.8767 16.5159 10.8207 16.6522 9.67396C16.6749 9.52635 16.8111 9.41281 16.9587 9.43552C17.1063 9.45823 17.2199 9.59448 17.1972 9.74208C17.0496 11.0024 16.5159 12.1719 15.6643 13.1143C15.6076 13.1711 15.5281 13.1938 15.46 13.1938Z" fill="#4A38AE"/>
<path d="M11.9395 15.0441C11.8032 15.0441 11.6897 14.9419 11.667 14.8057C11.6443 14.6581 11.7578 14.5105 11.9054 14.4991C12.8251 14.3742 13.7107 14.0223 14.4601 13.4659C14.585 13.3751 14.7553 13.3978 14.8462 13.5227C14.937 13.6476 14.9143 13.8179 14.7894 13.9087C13.9605 14.5218 12.9954 14.9192 11.9735 15.0555C11.9622 15.0441 11.9508 15.0441 11.9395 15.0441Z" fill="#4A38AE"/>
<path d="M10.4181 15.0445C10.4068 15.0445 10.3954 15.0445 10.3841 15.0445C7.62498 14.6812 5.47902 12.5012 5.1611 9.74208C5.1384 9.59448 5.25194 9.45823 5.39954 9.43552C5.54715 9.41281 5.6834 9.52635 5.70611 9.67396C6.00132 12.1832 7.94289 14.1702 10.4522 14.4995C10.5998 14.5222 10.7133 14.6585 10.6906 14.8061C10.6793 14.9423 10.5544 15.0445 10.4181 15.0445Z" fill="#4A38AE"/>
<path d="M5.45562 8.45876C5.44426 8.45876 5.43291 8.45876 5.4102 8.45876C5.26259 8.43605 5.1604 8.2998 5.17176 8.14084C5.35343 6.91458 5.89843 5.77915 6.76135 4.87081C6.86354 4.75727 7.04521 4.75727 7.1474 4.85946C7.26094 4.96165 7.26094 5.14331 7.15875 5.2455C6.37531 6.07436 5.87572 7.09625 5.71676 8.22032C5.70541 8.35657 5.59187 8.45876 5.45562 8.45876Z" fill="#4A38AE"/>
<path d="M7.81844 4.5986C7.72761 4.5986 7.64813 4.55318 7.59136 4.48505C7.50052 4.36016 7.53459 4.18984 7.65948 4.09901C8.46564 3.5313 9.39669 3.15661 10.3732 3.03171C10.5208 3.009 10.6684 3.12254 10.6797 3.27015C10.7024 3.41775 10.5889 3.56536 10.4413 3.57671C9.55565 3.69026 8.70408 4.03088 7.9774 4.55318C7.93199 4.58724 7.87522 4.5986 7.81844 4.5986Z" fill="#4A38AE"/>
<path d="M11.1798 13.9319C8.4775 13.9319 6.28613 11.7292 6.28613 9.03821C6.28613 6.3359 8.48886 4.14453 11.1798 4.14453C13.8821 4.14453 16.0735 6.34726 16.0735 9.03821C16.0735 11.7405 13.8821 13.9319 11.1798 13.9319ZM11.1798 4.68954C8.78407 4.68954 6.83114 6.64247 6.83114 9.03821C6.83114 11.434 8.78407 13.3869 11.1798 13.3869C13.5756 13.3869 15.5285 11.434 15.5285 9.03821C15.5171 6.64247 13.5756 4.68954 11.1798 4.68954Z" fill="#4A38AE"/>
<path d="M5.43478 10.2304C5.76713 10.2304 6.03656 9.96098 6.03656 9.62863C6.03656 9.29628 5.76713 9.02686 5.43478 9.02686C5.10243 9.02686 4.83301 9.29628 4.83301 9.62863C4.83301 9.96098 5.10243 10.2304 5.43478 10.2304Z" fill="#4A38AE"/>
<path d="M16.9475 8.85637C17.2798 8.85637 17.5493 8.58695 17.5493 8.2546C17.5493 7.92225 17.2798 7.65283 16.9475 7.65283C16.6151 7.65283 16.3457 7.92225 16.3457 8.2546C16.3457 8.58695 16.6151 8.85637 16.9475 8.85637Z" fill="#4A38AE"/>
<path d="M12.7812 7.68701C12.7812 6.82408 12.0773 6.12012 11.2143 6.12012C10.3514 6.12012 9.64746 6.82408 9.64746 7.68701C9.64746 8.23201 9.91996 8.70889 10.3514 8.99275L10.3741 8.87921C10.4082 8.67483 10.6126 8.50452 10.8169 8.50452H11.6117C11.8275 8.50452 12.0205 8.67483 12.0546 8.87921L12.0773 8.99275C12.4974 8.70889 12.7812 8.23201 12.7812 7.68701Z" fill="#4A38AE"/>
<path d="M10.3504 8.99219L9.91896 11.6264C9.8849 11.8308 10.0325 12.0011 10.2369 12.0011H12.1898C12.4055 12.0011 12.5418 11.8308 12.5077 11.6264L12.0763 8.99219C11.8265 9.15115 11.5313 9.25334 11.2133 9.25334C10.8954 9.25334 10.6002 9.15115 10.3504 8.99219Z" fill="#4A38AE"/>
<path d="M11.6119 8.49268H10.8171C10.6014 8.49268 10.4083 8.66299 10.3743 8.86737L10.3516 8.98091C10.6014 9.13987 10.8966 9.24206 11.2145 9.24206C11.5324 9.24206 11.8276 9.15122 12.0774 8.98091L12.0547 8.86737C12.0207 8.66299 11.8276 8.49268 11.6119 8.49268Z" fill="#4A38AE"/>
<path d="M21.8407 9.53744C21.6591 9.53744 21.4774 9.4466 21.3866 9.27629C21.3525 9.21952 18.1166 3.55374 11.1791 3.55374C4.24165 3.55374 1.00569 9.21952 0.971629 9.27629C0.835378 9.52608 0.517459 9.61692 0.267666 9.48066C0.0178719 9.34441 -0.072962 9.02649 0.063289 8.7767C0.19954 8.52691 3.60582 2.52051 11.1791 2.52051C18.741 2.52051 22.1473 8.52691 22.2949 8.7767C22.4312 9.02649 22.3403 9.34441 22.0905 9.48066C22.0111 9.51473 21.9202 9.53744 21.8407 9.53744Z" fill="#4A38AE"/>
<path d="M11.1791 15.521C3.61717 15.521 0.210894 9.51461 0.063289 9.26481C-0.072962 9.01502 0.0178719 8.6971 0.267666 8.56085C0.517459 8.4246 0.835378 8.51543 0.971629 8.76522C1.00569 8.822 4.24165 14.4878 11.1791 14.4878C18.1166 14.4878 21.3525 8.822 21.3866 8.76522C21.5228 8.51543 21.8407 8.4246 22.0905 8.56085C22.3403 8.6971 22.4312 9.01502 22.2949 9.26481C22.1473 9.52596 18.741 15.521 11.1791 15.521Z" fill="#4A38AE"/>
<path d="M68.7267 25.1212V27.4553H70.8428C70.9276 27.4553 70.9699 27.4977 70.9699 27.5825V27.8004C70.9699 27.8852 70.9276 27.9276 70.8428 27.9276H68.4724C68.4239 27.9276 68.3664 27.8943 68.2998 27.8277C68.2393 27.7611 68.209 27.7066 68.209 27.6642V22.2149C68.209 22.1665 68.2423 22.112 68.3089 22.0515C68.3755 21.9849 68.433 21.9516 68.4814 21.9516H70.8428C70.9276 21.9516 70.9699 21.9939 70.9699 22.0787V22.2967C70.9699 22.3814 70.9276 22.4238 70.8428 22.4238H68.7267V24.658H70.5794C70.6642 24.658 70.7066 24.7004 70.7066 24.7852V24.9941C70.7066 25.0788 70.6642 25.1212 70.5794 25.1212H68.7267Z" fill="#4A38AE"/>
<path d="M72.6536 23.3411V26.538C72.6536 26.7439 72.7929 26.9588 73.0714 27.1828C73.3559 27.4008 73.5891 27.5098 73.7707 27.5098C73.9887 27.5098 74.3489 27.3615 74.8515 27.0648C74.9423 27.0103 75.0119 27.0224 75.0604 27.1011L75.1421 27.2737C75.1845 27.3584 75.1663 27.422 75.0876 27.4644C74.5487 27.8216 74.1098 28.0002 73.7707 28.0002C73.4801 28.0002 73.1349 27.8398 72.7353 27.5189C72.3357 27.198 72.1359 26.8922 72.1359 26.6016V23.2775C72.1359 22.9869 72.3357 22.6812 72.7353 22.3603C73.1349 22.0394 73.4831 21.8789 73.7798 21.8789C74.0825 21.8789 74.5185 22.0484 75.0876 22.3875C75.1663 22.4359 75.1845 22.5025 75.1421 22.5873L75.0604 22.7508C75.018 22.8356 74.9483 22.8507 74.8515 22.7962C74.3671 22.5116 74.0099 22.3693 73.7798 22.3693C73.5921 22.3693 73.3559 22.4814 73.0714 22.7054C72.7929 22.9233 72.6536 23.1353 72.6536 23.3411Z" fill="#4A38AE"/>
<path d="M79.4678 23.2775V26.6016C79.4678 26.8862 79.265 27.1919 78.8593 27.5189C78.4597 27.8398 78.1146 28.0002 77.8239 28.0002C77.5333 28.0002 77.1882 27.8398 76.7886 27.5189C76.389 27.198 76.1892 26.8922 76.1892 26.6016V23.2775C76.1892 22.993 76.389 22.6902 76.7886 22.3693C77.1942 22.0424 77.5394 21.8789 77.8239 21.8789C78.1146 21.8789 78.4597 22.0424 78.8593 22.3693C79.265 22.6902 79.4678 22.993 79.4678 23.2775ZM76.7068 23.3411V26.538C76.7068 26.7378 76.8431 26.9497 77.1155 27.1738C77.394 27.3978 77.6302 27.5098 77.8239 27.5098C78.0237 27.5098 78.2599 27.3978 78.5323 27.1738C78.8108 26.9497 78.9501 26.7378 78.9501 26.538V23.3411C78.9501 23.1474 78.8108 22.9385 78.5323 22.7145C78.2599 22.4844 78.0237 22.3693 77.8239 22.3693C77.6302 22.3693 77.394 22.4844 77.1155 22.7145C76.8431 22.9385 76.7068 23.1474 76.7068 23.3411Z" fill="#4A38AE"/>
<path d="M82.3354 22.3693C82.1477 22.3693 81.9116 22.4814 81.627 22.7054C81.3424 22.9233 81.2001 23.1262 81.2001 23.3139V23.7407C81.2001 24.0132 81.406 24.2342 81.8177 24.4037L83.1346 24.9668C83.6311 25.1848 83.8793 25.539 83.8793 26.0294V26.647C83.8793 26.8952 83.6795 27.1828 83.2799 27.5098C82.8803 27.8368 82.5412 28.0002 82.2627 28.0002C81.9842 28.0002 81.4968 27.8156 80.8005 27.4462C80.7097 27.3978 80.6885 27.3251 80.7369 27.2283L80.8187 27.0648C80.8671 26.98 80.9367 26.9618 81.0276 27.0103C81.6088 27.3433 82.0205 27.5098 82.2627 27.5098C82.4444 27.5098 82.6744 27.3978 82.953 27.1738C83.2315 26.9437 83.3707 26.7439 83.3707 26.5743V26.093C83.3707 25.76 83.177 25.5148 82.7895 25.3573L81.518 24.8124C80.967 24.5642 80.6915 24.2281 80.6915 23.8043V23.2503C80.6915 22.9778 80.8944 22.6812 81.3 22.3603C81.7117 22.0394 82.0569 21.8789 82.3354 21.8789C82.6502 21.8789 83.1074 22.0454 83.7068 22.3784C83.8037 22.4269 83.8279 22.4965 83.7794 22.5873L83.7068 22.7508C83.6644 22.8356 83.5917 22.8507 83.4888 22.7962C82.9318 22.5116 82.5473 22.3693 82.3354 22.3693Z" fill="#4A38AE"/>
<path d="M86.7941 25.5208V27.7913C86.7941 27.8822 86.7517 27.9276 86.667 27.9276H86.4218C86.3249 27.9276 86.2764 27.8822 86.2764 27.7913V25.5208C85.9798 25.4239 85.677 25.2362 85.3682 24.9577C85.0594 24.6792 84.905 24.4158 84.905 24.1676V22.0878C84.905 21.997 84.9474 21.9516 85.0322 21.9516H85.2865C85.3773 21.9516 85.4227 21.9939 85.4227 22.0787V24.104C85.4227 24.2978 85.559 24.5067 85.8314 24.7307C86.1099 24.9547 86.343 25.0667 86.5307 25.0667C86.7184 25.0667 86.9515 24.9547 87.2301 24.7307C87.5146 24.5067 87.6569 24.2978 87.6569 24.104V22.0787C87.6569 21.9939 87.6993 21.9516 87.7841 21.9516H88.0384C88.1292 21.9516 88.1746 21.997 88.1746 22.0878V24.1676C88.1746 24.4158 88.0172 24.6792 87.7023 24.9577C87.3875 25.2302 87.0847 25.4179 86.7941 25.5208Z" fill="#4A38AE"/>
<path d="M90.9385 22.3693C90.7508 22.3693 90.5147 22.4814 90.2301 22.7054C89.9456 22.9233 89.8033 23.1262 89.8033 23.3139V23.7407C89.8033 24.0132 90.0091 24.2342 90.4208 24.4037L91.7378 24.9668C92.2342 25.1848 92.4825 25.539 92.4825 26.0294V26.647C92.4825 26.8952 92.2827 27.1828 91.8831 27.5098C91.4835 27.8368 91.1444 28.0002 90.8659 28.0002C90.5874 28.0002 90.0999 27.8156 89.4037 27.4462C89.3128 27.3978 89.2916 27.3251 89.3401 27.2283L89.4218 27.0648C89.4703 26.98 89.5399 26.9618 89.6307 27.0103C90.212 27.3433 90.6237 27.5098 90.8659 27.5098C91.0475 27.5098 91.2776 27.3978 91.5561 27.1738C91.8346 26.9437 91.9739 26.7439 91.9739 26.5743V26.093C91.9739 25.76 91.7801 25.5148 91.3926 25.3573L90.1211 24.8124C89.5702 24.5642 89.2947 24.2281 89.2947 23.8043V23.2503C89.2947 22.9778 89.4975 22.6812 89.9032 22.3603C90.3149 22.0394 90.66 21.8789 90.9385 21.8789C91.2534 21.8789 91.7105 22.0454 92.3099 22.3784C92.4068 22.4269 92.431 22.4965 92.3826 22.5873L92.3099 22.7508C92.2675 22.8356 92.1949 22.8507 92.092 22.7962C91.5349 22.5116 91.1504 22.3693 90.9385 22.3693Z" fill="#4A38AE"/>
<path d="M93.2539 21.9516H96.5144C96.5991 21.9516 96.6415 21.9939 96.6415 22.0787V22.2967C96.6415 22.3814 96.5991 22.4238 96.5144 22.4238H95.143V27.8004C95.143 27.8852 95.0976 27.9276 95.0067 27.9276H94.7524C94.6677 27.9276 94.6253 27.8852 94.6253 27.8004V22.4238H93.2539C93.1631 22.4238 93.1177 22.3814 93.1177 22.2967V22.0787C93.1177 21.9939 93.1631 21.9516 93.2539 21.9516Z" fill="#4A38AE"/>
<path d="M98.1104 25.1212V27.4553H100.227C100.311 27.4553 100.354 27.4977 100.354 27.5825V27.8004C100.354 27.8852 100.311 27.9276 100.227 27.9276H97.8561C97.8077 27.9276 97.7501 27.8943 97.6835 27.8277C97.623 27.7611 97.5927 27.7066 97.5927 27.6642V22.2149C97.5927 22.1665 97.626 22.112 97.6926 22.0515C97.7592 21.9849 97.8167 21.9516 97.8652 21.9516H100.227C100.311 21.9516 100.354 21.9939 100.354 22.0787V22.2967C100.354 22.3814 100.311 22.4238 100.227 22.4238H98.1104V24.658H99.9631C100.048 24.658 100.09 24.7004 100.09 24.7852V24.9941C100.09 25.0788 100.048 25.1212 99.9631 25.1212H98.1104Z" fill="#4A38AE"/>
<path d="M105.389 22.0787V27.8004C105.389 27.8852 105.346 27.9276 105.261 27.9276H104.998C104.968 27.9276 104.938 27.9155 104.907 27.8912C104.883 27.867 104.871 27.8368 104.871 27.8004V22.9597L103.745 24.9214C103.702 24.9941 103.651 25.0304 103.59 25.0304H103.418C103.351 25.0304 103.297 24.9941 103.254 24.9214L102.128 22.9597V27.8004C102.128 27.8852 102.086 27.9276 102.001 27.9276H101.738C101.707 27.9276 101.677 27.9155 101.647 27.8912C101.623 27.867 101.61 27.8368 101.61 27.8004V22.0787C101.61 21.9939 101.659 21.9516 101.756 21.9516H101.956C102.016 21.9516 102.08 21.997 102.146 22.0878L103.5 24.4401L104.853 22.106C104.919 22.003 104.989 21.9516 105.062 21.9516H105.252C105.343 21.9516 105.389 21.9939 105.389 22.0787Z" fill="#4A38AE"/>
</svg>
