<svg width="208" height="24" viewBox="0 0 208 24" fill="none" xmlns="http://www.w3.org/2000/svg">
<path d="M67.6325 18.2482H70.0248L64.8081 6.60266H62.4158L57.1997 18.2482H59.5754C60.9612 15.1992 62.2754 12.1214 63.6125 9.0503C64.9477 12.1185 66.2669 15.1934 67.6325 18.2482Z" fill="white"/>
<path d="M88.6565 18.2488H90.8494V6.63647H88.3407L84.7027 11.6287L81.0644 6.63647H78.5391V18.2488H80.732V9.80665L84.4369 14.8655H84.8686L88.6565 9.82325V18.2488Z" fill="white"/>
<path d="M106.041 6.60266C104.198 6.60266 102.353 6.60266 100.526 6.60266V18.2482C102.37 18.2482 104.198 18.2482 106.041 18.2482C108.45 18.2482 110.394 17.4179 110.394 14.8259C110.394 14.0952 109.896 12.6498 108.533 12.2344C109.613 11.7527 110.045 10.886 110.045 9.98331C110.045 7.63261 108.334 6.60266 106.041 6.60266ZM102.686 8.59617H106.041C107.437 8.59617 107.869 9.49863 107.869 10.0331C107.869 10.7032 107.42 11.2875 106.041 11.2875H102.686V8.59617ZM102.686 13.2143H106.041C106.939 13.2143 108.218 13.7625 108.218 14.8093C108.218 15.9059 106.939 16.2049 106.041 16.2049H102.686V13.2143Z" fill="white"/>
<path d="M125.171 8.6457C126.55 8.6457 127.165 9.57871 127.165 10.5149C127.165 11.4508 126.567 12.3838 125.171 12.3838H121.832V8.64596H125.171V8.6457ZM129.939 18.0985L126.417 14.1281C128.627 13.6798 129.358 12.0682 129.358 10.4651C129.358 8.44656 127.912 6.61899 125.171 6.60266C123.327 6.61926 121.483 6.60266 119.639 6.60266V18.2482H121.832V14.361H123.942L127.331 18.2482H129.939V18.0985Z" fill="white"/>
<path d="M143.985 8.38031C146.726 8.38031 147.823 10.5732 147.789 12.5338C147.756 14.4441 146.726 16.504 143.985 16.504C141.244 16.504 140.214 14.4607 140.164 12.5501C140.114 10.5896 141.244 8.38031 143.985 8.38031ZM143.985 6.38654C139.965 6.38654 138.004 9.46004 138.004 12.5167C138.004 15.5733 139.898 18.5141 143.985 18.5141C148.072 18.5141 149.916 15.5072 149.949 12.5001C149.982 9.46004 147.989 6.38654 143.985 6.38654Z" fill="white"/>
<path d="M168.497 8.52984C167.617 6.73573 165.74 6.22076 163.929 6.22076C161.786 6.23736 159.427 7.21725 159.427 9.60957C159.427 12.2176 161.619 12.8493 163.995 13.1314C165.54 13.2976 166.687 13.7462 166.687 14.8425C166.687 16.1051 165.391 16.5869 164.012 16.5869C162.6 16.5869 161.254 16.0218 160.739 14.743L158.912 15.6899C159.775 17.8165 161.603 18.5474 163.978 18.5474C166.57 18.5474 168.863 17.4343 168.863 14.8428C168.863 12.0685 166.603 11.4371 164.178 11.1382C162.782 10.9722 161.586 10.6898 161.586 9.67648C161.586 8.81248 162.367 8.1313 163.995 8.1313C165.258 8.1313 166.354 8.76244 166.753 9.42729L168.497 8.52984Z" fill="white"/>
<path d="M186.265 6.63647V13.2982C186.265 15.2917 185.235 16.5045 183.424 16.5045C181.613 16.5045 180.417 15.3915 180.417 13.2982V6.63647H178.241V13.2982C178.241 16.8037 180.617 18.498 183.408 18.498C186.331 18.498 188.441 16.7371 188.441 13.2982V6.63647H186.265Z" fill="white"/>
<path d="M207.189 8.52984C206.308 6.73573 204.431 6.22076 202.62 6.22076C200.477 6.23736 198.118 7.21725 198.118 9.60957C198.118 12.2176 200.311 12.8493 202.687 13.1314C204.232 13.2976 205.378 13.7462 205.378 14.8425C205.378 16.1051 204.082 16.5869 202.703 16.5869C201.292 16.5869 199.946 16.0218 199.431 14.743L197.603 15.6899C198.467 17.8165 200.294 18.5474 202.67 18.5474C205.262 18.5474 207.554 17.4343 207.554 14.8428C207.554 12.0685 205.295 11.4371 202.869 11.1382C201.474 10.9722 200.278 10.6898 200.278 9.67648C200.278 8.81248 201.059 8.1313 202.687 8.1313C203.949 8.1313 205.046 8.76244 205.445 9.42729L207.189 8.52984Z" fill="white"/>
<path fill-rule="evenodd" clip-rule="evenodd" d="M22.0518 24C16.8832 23.9296 12.2495 20.5062 10.7366 15.458C10.321 15.2904 9.99552 14.9232 9.90149 14.4506C9.75334 13.7059 10.2372 12.9823 10.9819 12.834C11.7265 12.6858 12.4504 13.1697 12.5984 13.9144C12.6827 14.3391 12.5619 14.7565 12.3043 15.0647C13.6337 19.3864 17.6127 22.3141 22.0518 22.3848C22.6628 22.3738 23.2816 22.3086 23.9021 22.1853C28.2855 21.3135 31.4711 17.801 32.1345 13.6309C32.1483 13.5435 32.161 13.4556 32.173 13.3674C32.3242 12.2168 33.9128 12.4291 33.7946 13.4243C33.1961 18.4428 29.4428 22.73 24.2171 23.7693C23.4906 23.9136 22.7671 23.9887 22.0518 24ZM33.2523 19.4454C34.7291 18.6644 36.1723 17.7245 37.5678 16.6231C39.0576 15.4472 40.2632 14.3451 41.5248 12.9265C42.3066 12.0469 42.3066 11.8186 41.5248 10.9389C40.2634 9.52024 39.0576 8.41814 37.5678 7.24231C36.1291 6.1069 34.6398 5.14307 33.1151 4.34802C32.3621 3.23951 31.4494 2.24826 30.4111 1.40603C33.2397 2.40907 35.9879 3.92925 38.5725 5.96916C40.0469 7.13285 41.3294 8.33764 42.5316 9.65832C44.6283 11.9611 44.6283 11.9042 42.5316 14.2067C41.3292 15.5274 40.0469 16.732 38.5725 17.8959C36.0752 19.8667 33.4251 21.3526 30.6975 22.3556C31.6805 21.513 32.5418 20.5331 33.2523 19.4454ZM10.8516 19.4454C9.37499 18.6644 7.93166 17.7245 6.53622 16.6231C5.0464 15.4472 3.84073 14.3451 2.57921 12.9265C1.79735 12.0469 1.79735 11.8186 2.57921 10.9389C3.84056 9.52024 5.04622 8.41814 6.53622 7.24231C7.97486 6.1069 9.46416 5.14307 10.9888 4.34802C11.7419 3.23951 12.6546 2.24826 13.6928 1.40603C10.8643 2.40907 8.11607 3.92925 5.53161 5.96916C4.05706 7.13285 2.77472 8.33764 1.57235 9.65832C-0.524117 11.9611 -0.524117 11.9042 1.57235 14.2067C2.77489 15.5274 4.05706 16.732 5.53161 17.8959C8.02881 19.8667 10.6788 21.3526 13.4064 22.3556C12.4233 21.513 11.562 20.5331 10.8516 19.4454ZM22.0518 17.5134C19.3457 17.5134 19.4585 17.7127 19.6969 16.4822L20.5542 12.0546C19.6946 11.5235 19.1218 10.5727 19.1218 9.48814C19.1218 7.85139 20.4262 6.51943 22.052 6.47468C23.678 6.51943 24.9822 7.85139 24.9822 9.48814C24.9822 10.5727 24.4094 11.5235 23.5498 12.0546L24.4069 16.4822C24.6453 17.7127 24.7579 17.5134 22.0518 17.5134ZM22.0518 3.64076C26.6685 3.64076 30.4111 7.38317 30.4111 11.9999C30.4111 16.6167 26.6687 20.3592 22.0518 20.3592C17.4351 20.3592 13.6925 16.6167 13.6925 11.9999C13.6925 7.38317 17.4352 3.64076 22.0518 3.64076ZM22.0518 0C27.2206 0.0704316 31.8541 3.49365 33.3672 8.54183C33.7828 8.7094 34.1083 9.07666 34.2021 9.54921C34.3503 10.2939 33.8665 11.0177 33.1217 11.1657C32.377 11.3138 31.6532 10.8302 31.5053 10.0854C31.4209 9.66092 31.5419 9.24337 31.7991 8.9351C30.4699 4.61344 26.4907 1.68567 22.0518 1.61507C21.4408 1.626 20.8222 1.69123 20.2015 1.81474C15.8181 2.68629 12.6327 6.19902 11.9692 10.3691C11.9551 10.4565 11.9424 10.5444 11.9307 10.6326C11.7792 11.7832 10.1907 11.5709 10.3088 10.5757C10.9075 5.55716 14.6607 1.27002 19.8863 0.230898C20.613 0.0863915 21.3369 0.011276 22.0518 0Z" fill="white"/>
</svg>
