<svg width="18" height="18" viewBox="0 0 18 18" fill="none" xmlns="http://www.w3.org/2000/svg">
<path d="M8 2L3 2C2.45 2 2 2.45 2 3L2 15C2 15.55 2.45 16 3 16L8 16C8.55 16 9 16.45 9 17C9 17.55 8.55 18 8 18L2 18C0.9 18 3.93403e-08 17.1 8.74228e-08 16L6.99382e-07 2C7.47465e-07 0.899999 0.9 -7.47465e-07 2 -6.99382e-07L8 -4.37114e-07C8.55 -4.13073e-07 9 0.45 9 1C9 1.55 8.55 2 8 2ZM14.5875 8L12.7075 6.12C12.3175 5.73 12.3175 5.1 12.7075 4.71C13.0975 4.32 13.7275 4.32 14.1175 4.71L17.7075 8.3C18.0975 8.69 18.0975 9.32 17.7075 9.71L14.1175 13.3C13.7275 13.69 13.0975 13.69 12.7075 13.3C12.3175 12.91 12.3175 12.28 12.7075 11.89L14.5875 10L5.9175 10C5.3675 10 4.9175 9.55 4.9175 9C4.9175 8.45 5.3675 8 5.9175 8L14.5875 8Z" fill="#323232"/>
</svg>
