<svg width="18" height="18" viewBox="0 0 18 18" fill="none" xmlns="http://www.w3.org/2000/svg">
<path d="M14 8.00055C14.34 8.00055 14.67 8.04055 15 8.09055V4.58055C15 3.78055 14.53 3.06055 13.8 2.75055L8.3 0.350547C7.79 0.130547 7.21 0.130547 6.7 0.350547L1.2 2.75055C0.47 3.07055 0 3.79055 0 4.58055V8.18055C0 12.7205 3.2 16.9705 7.5 18.0005C8.05 17.8705 8.58 17.6805 9.1 17.4505C8.41 16.4705 8 15.2805 8 14.0005C8 10.6905 10.69 8.00055 14 8.00055Z" fill="#4A38AE"/>
<path d="M14 10C11.79 10 10 11.79 10 14C10 16.21 11.79 18 14 18C16.21 18 18 16.21 18 14C18 11.79 16.21 10 14 10ZM14 11.38C14.62 11.38 15.12 11.89 15.12 12.5C15.12 13.11 14.61 13.62 14 13.62C13.39 13.62 12.88 13.11 12.88 12.5C12.88 11.89 13.38 11.38 14 11.38ZM14 16.75C13.07 16.75 12.26 16.29 11.76 15.58C11.81 14.86 13.27 14.5 14 14.5C14.73 14.5 16.19 14.86 16.24 15.58C15.74 16.29 14.93 16.75 14 16.75Z" fill="#4A38AE"/>
</svg>
