<svg width="24" height="24" viewBox="0 0 24 24" fill="none" xmlns="http://www.w3.org/2000/svg">
<g clip-path="url(#clip0_58_713)">
<path d="M23.25 24H19.75C19.336 24 19 23.664 19 23.25V22H15.5V23.25C15.5 23.664 15.164 24 14.75 24H9.25C8.836 24 8.5 23.664 8.5 23.25V22H5V23.25C5 23.664 4.664 24 4.25 24H0.75C0.336 24 0 23.664 0 23.25V18.75C0 18.336 0.336 18 0.75 18H23.25C23.664 18 24 18.336 24 18.75V23.25C24 23.664 23.664 24 23.25 24Z" fill="#9198BB"/>
<path d="M12 12.75C11.447 12.75 11 12.302 11 11.75V4C11 3.448 11.447 3 12 3C12.553 3 13 3.448 13 4V11.75C13 12.302 12.553 12.75 12 12.75Z" fill="#9198BB"/>
<path d="M11.9993 13.0004C11.7543 13.0004 11.5093 12.9104 11.3163 12.7314L7.56625 9.23138C7.16325 8.85438 7.14126 8.22137 7.51725 7.81837C7.89525 7.41437 8.52625 7.39237 8.93125 7.76937L11.9993 10.6324L15.0663 7.76937C15.4713 7.39137 16.1033 7.41437 16.4803 7.81837C16.8563 8.22137 16.8343 8.85438 16.4313 9.23138L12.6813 12.7314C12.4893 12.9104 12.2443 13.0004 11.9993 13.0004Z" fill="#9198BB"/>
</g>
<defs>
<clipPath id="clip0_58_713">
<rect width="24" height="24" fill="white"/>
</clipPath>
</defs>
</svg>
