<svg width="20" height="20" viewBox="0 0 20 20" fill="none" xmlns="http://www.w3.org/2000/svg">
<path d="M9.99967 9.99984C10.9163 9.99984 11.6663 9.24984 11.6663 8.33317C11.6663 7.4165 10.9163 6.6665 9.99967 6.6665C9.08301 6.6665 8.33301 7.4165 8.33301 8.33317C8.33301 9.24984 9.08301 9.99984 9.99967 9.99984ZM9.99967 1.6665C13.4997 1.6665 16.6663 4.34984 16.6663 8.49984C16.6663 11.1498 14.6247 14.2665 10.5497 17.8582C10.233 18.1332 9.75801 18.1332 9.44134 17.8582C5.37467 14.2665 3.33301 11.1498 3.33301 8.49984C3.33301 4.34984 6.49967 1.6665 9.99967 1.6665Z" fill="#9198BB"/>
</svg>
