<svg width="18" height="18" viewBox="0 0 18 18" fill="none" xmlns="http://www.w3.org/2000/svg">
<path d="M16 0H1.99C0.88 0 0 0.9 0 2V16C0 17.1 0.88 18 1.99 18H16C17.1 18 18 17.1 18 16V2C18 0.9 17.1 0 16 0ZM16 12H12.87C12.4 12 12.02 12.34 11.89 12.8C11.54 14.07 10.37 15 9 15C7.63 15 6.46 14.07 6.11 12.8C5.98 12.34 5.6 12 5.13 12H1.99V3C1.99 2.45 2.44 2 2.99 2H15C15.55 2 16 2.45 16 3V12Z" fill="white"/>
<path d="M13 7.8H11V10.8H7V7.8H5L8.65 4.15C8.85 3.95 9.16 3.95 9.36 4.15L13 7.8Z" fill="white"/>
</svg>
